# xmcd CD database file
#
# Track frame offsets:
#	150
#	12669
#	24163
#	37873
#	50680
#	63541
#	78877
#	89773
#	102277
#	113837
#	125389
#	137610
#	150257
#	162990
#	175035
#	187189
#	199772
#	211953
#	226834
#	241032
#	255866
#	267274
#	279436
#	292426
#	304302
#
# Disc length: 4257 seconds
#
# Revision: 1
# Processed by: cddbd v1.5.2PL0 Copyright (c) Steve Scherf et al.
# Submitted via: CDex 1.70beta2
#
DISCID=57109f19
DTITLE=Various Artist - The Ultimate Jazz Archive Set 04
DYEAR=1928
DGENRE=Jazz
TTITLE0=Mc Kinney's Cotten Pickers - Four Or Five Times
TTITLE1=Mc Kinney's Cotten Pickers - Put It There
TTITLE2=Mc Kinney's Cotten Pickers - Crying And Sighing
TTITLE3=Mc Kinney's Cotten Pickers - Milenberg Joys
TTITLE4=Mc Kinney's Cotten Pickers - Forgetting You
TTITLE5=Mc Kinney's Cotten Pickers - Cherry
TTITLE6=Mc Kinney's Cotten Pickers - Stop Kidding
TTITLE7=Mc Kinney's Cotten Pickers - Nobody's Sweetheart
TTITLE8=Mc Kinney's Cotten Pickers - Some Sweet Day
TTITLE9=Mc Kinney's Cotten Pickers - Shim-Me-Sha-Wabble
TTITLE10=Mc Kinney's Cotten Pickers - My Blackbirds Are Bluebirds Now
TTITLE11=Mc Kinney's Cotten Pickers - Don't Be Like That
TTITLE12=Mc Kinney's Cotten Pickers - Don't Be Like That (2)
TTITLE13=Mc Kinney's Cotten Pickers - It's Tight Like That (3)
TTITLE14=Mc Kinney's Cotten Pickers - There's A Rainbow
TTITLE15=Mc Kinney's Cotten Pickers - It's A Precious Little Thing
TTITLE16=Mc Kinney's Cotten Pickers - Save It, Pretty Mama
TTITLE17=Mc Kinney's Cotten Pickers - I Found A New Baby
TTITLE18=Mc Kinney's Cotten Pickers - Will You, Won't You Be My Baby?
TTITLE19=Mc Kinney's Cotten Pickers - Beedle Um Bum
TTITLE20=Mc Kinney's Cotten Pickers - Do Something
TTITLE21=Mc Kinney's Cotten Pickers - Selling That Stuff
TTITLE22=Mc Kinney's Cotten Pickers - Birmingham Bertha
TTITLE23=Mc Kinney's Cotten Pickers - Plain Dirt
TTITLE24=Mc Kinney's Cotten Pickers - Gee. Ain't I Good To You
EXTD=YEAR: 1928
EXTT0=
EXTT1=
EXTT2=
EXTT3=
EXTT4=
EXTT5=
EXTT6=
EXTT7=
EXTT8=
EXTT9=
EXTT10=
EXTT11=
EXTT12=
EXTT13=
EXTT14=
EXTT15=
EXTT16=
EXTT17=
EXTT18=
EXTT19=
EXTT20=
EXTT21=
EXTT22=
EXTT23=
EXTT24=
PLAYORDER=
